PathFileType	4	(X/Y/Z)	/Users/itak/Documents/Research/Walk-IL/dataset/trc/00471_00167.trc
DataRate	CameraRate	NumFrames	NumMarkers	Units	OrigDataRate	OrigDataStartFrame	OrigNumFrames
100.000000	100.000000	4	53	mm	100.000000	0	626
Frame#	Time	RPSI			LPSI			L3			STRN			T10			C7			CLAV			RBAK			LBAK			LSHO			LUPA			LAEL			LAOL			LWTS			LWPS			LFRA			LIFD			LHPS			LHTS			RSHO			RUPA			RAEL			RAOL			RWTS			RWPS			RFRA			RIFD			RHTS			RHPS			RBHD			LFHD			RFHD			LBHD			LHIP			RHIP			RASI			LASI			LKNE			LTHI			LANK			LTIP			LTOE			LMT1			LMT5			LHEE			RKNE			RTHI			RANK			RTIP			RTOE			RMT1			RMT5			RHEE			
		X1	Y1	Z1	X2	Y2	Z2	X3	Y3	Z3	X4	Y4	Z4	X5	Y5	Z5	X6	Y6	Z6	X7	Y7	Z7	X8	Y8	Z8	X9	Y9	Z9	X10	Y10	Z10	X11	Y11	Z11	X12	Y12	Z12	X13	Y13	Z13	X14	Y14	Z14	X15	Y15	Z15	X16	Y16	Z16	X17	Y17	Z17	X18	Y18	Z18	X19	Y19	Z19	X20	Y20	Z20	X21	Y21	Z21	X22	Y22	Z22	X23	Y23	Z23	X24	Y24	Z24	X25	Y25	Z25	X26	Y26	Z26	X27	Y27	Z27	X28	Y28	Z28	X29	Y29	Z29	X30	Y30	Z30	X31	Y31	Z31	X32	Y32	Z32	X33	Y33	Z33	X34	Y34	Z34	X35	Y35	Z35	X36	Y36	Z36	X37	Y37	Z37	X38	Y38	Z38	X39	Y39	Z39	X40	Y40	Z40	X41	Y41	Z41	X42	Y42	Z42	X43	Y43	Z43	X44	Y44	Z44	X45	Y45	Z45	X46	Y46	Z46	X47	Y47	Z47	X48	Y48	Z48	X49	Y49	Z49	X50	Y50	Z50	X51	Y51	Z51	X52	Y52	Z52	X53	Y53	Z53	

1	0	-1259.965087890625	963.0827026367188	-427.088623046875	-1227.645874023438	957.9915161132812	-564.1110229492188	-1235.916870117188	1051.612670898438	-480.2687683105469	-978.1259155273438	1253.833862304688	-445.8343811035156	-1257.553955078125	1175.6318359375	-487.3017578125	-1200.738891601562	1445.616088867188	-469.4535827636719	-1015.804748535156	1364.769897460938	-457.0939636230469	-1275.343872070312	1327.1943359375	-382.9626770019531	-1219.570190429688	1394.585083007812	-571.5370483398438	-1108.16455078125	1416.56494140625	-636.2460327148438	-1102.210693359375	1299.44287109375	-736.1689453125	-1072.487670898438	1087.863403320312	-771.314453125	-1155.6396484375	1075.752807617188	-710.9525756835938	-1014.195190429688	874.8807983398438	-751.0805053710938	-1062.460327148438	872.617919921875	-809.2001342773438	-1059.979614257812	1000.645202636719	-789.5579833984375	-1021.153076171875	720.7652587890625	-791.0896606445312	-1060.971557617188	797.7193603515625	-823.06396484375	-1004.804382324219	793.0308837890625	-775.5736694335938	-1153.77734375	1418.598876953125	-300.9525146484375	-1180.8525390625	1360.942504882812	-226.2216339111328	-1186.775390625	1080.51318359375	-157.9173736572266	-1231.537353515625	1064.388305664062	-206.1180877685547	-1099.302978515625	865.1035766601562	-158.5231323242188	-1181.88916015625	858.8641357421875	-124.2125091552734	-1191.178100585938	1023.396362304688	-143.4205474853516	-1112.320190429688	710.712646484375	-136.1923522949219	-1096.588134765625	768.9415283203125	-136.1657409667969	-1172.3515625	771.9296264648438	-115.9611740112305	-1121.561889648438	1641.39990234375	-370.1582336425781	-980.89794921875	1663.719360351562	-520.3822631835938	-986.0485229492188	1661.779418945312	-389.6056213378906	-1130.896362304688	1648.485961914062	-547.5260009765625	-1072.289916992188	859.5623168945312	-653.1019287109375	-1177.498779296875	863.4083862304688	-268.1931457519531	-1058.751586914062	902.3571166992188	-302.2283630371094	-992.311279296875	895.2211303710938	-553.6674194335938	-1106.2900390625	444.6983642578125	-629.5114135742188	-1065.967041015625	594.63671875	-639.389892578125	-1196.218139648438	41.68373489379883	-648.5993041992188	-1121.18310546875	299.5661926269531	-649.2342529296875	-980.3731689453125	43.07958984375	-539.6798706054688	-1058.724609375	50.49407958984375	-525.8910522460938	-1041.552490234375	44.95542526245117	-638.556884765625	-1252.105834960938	46.13662338256836	-593.9720458984375	-1159.448852539062	471.3741455078125	-278.7344055175781	-1138.347412109375	731.3069458007812	-245.4055023193359	-1223.652587890625	44.7668571472168	-270.68701171875	-1165.980590820312	329.5260620117188	-264.7823181152344	-1005.166198730469	47.20557403564453	-303.1143188476562	-1066.096801757812	52.39217758178711	-342.4637756347656	-1092.287109375	48.77310943603516	-236.9134216308594	-1285.305053710938	38.31091690063477	-321.1227722167969	
2	0.01	-1260.050903320312	963.0313110351562	-427.0332946777344	-1227.831909179688	957.9710693359375	-564.0634155273438	-1235.9990234375	1051.626708984375	-480.1989135742188	-978.1480102539062	1253.8115234375	-445.9154663085938	-1257.62841796875	1175.641357421875	-487.235107421875	-1200.75048828125	1445.614379882812	-469.3422546386719	-1015.822326660156	1364.76953125	-457.1552429199219	-1275.293334960938	1327.200927734375	-382.8028869628906	-1219.702270507812	1394.618408203125	-571.3568115234375	-1108.3916015625	1416.602294921875	-636.2260131835938	-1102.817504882812	1299.51513671875	-736.2108764648438	-1073.54833984375	1087.834350585938	-771.5052490234375	-1156.519287109375	1075.840454101562	-710.8507080078125	-1015.414428710938	874.8460083007812	-751.2423706054688	-1063.581298828125	872.5042724609375	-809.0789184570312	-1061.094848632812	1000.615417480469	-789.7024536132812	-1022.285583496094	720.6682739257812	-790.9158935546875	-1062.192016601562	797.60400390625	-822.8694458007812	-1005.948913574219	792.9577026367188	-775.5797729492188	-1153.647705078125	1418.532470703125	-300.8532409667969	-1180.639282226562	1360.848876953125	-226.1397399902344	-1186.784423828125	1080.447265625	-157.8822174072266	-1231.564575195312	1064.358520507812	-206.0992126464844	-1099.543701171875	864.9863891601562	-158.4197082519531	-1182.180297851562	858.8013305664062	-124.200065612793	-1191.240600585938	1023.348876953125	-143.4142303466797	-1112.620849609375	710.6218872070312	-135.9212341308594	-1096.854858398438	768.8308715820312	-135.9830017089844	-1172.709350585938	771.9095458984375	-115.8127365112305	-1121.524291992188	1641.460693359375	-370.15380859375	-980.961181640625	1663.68798828125	-520.4595947265625	-986.081787109375	1661.841186523438	-389.72216796875	-1130.958129882812	1648.462158203125	-547.5380249023438	-1072.472412109375	859.557373046875	-653.1776123046875	-1177.463012695312	863.3736572265625	-268.1827087402344	-1058.74072265625	902.3387451171875	-302.3450622558594	-992.3741455078125	895.2721557617188	-553.7423706054688	-1106.305908203125	444.7066650390625	-629.539306640625	-1066.080322265625	594.6748046875	-639.5157470703125	-1196.223510742188	41.67783355712891	-648.6144409179688	-1121.17724609375	299.5529479980469	-649.2537231445312	-980.3978271484375	43.10544204711914	-539.69091796875	-1058.736328125	50.49296569824219	-525.8927001953125	-1041.562255859375	44.95488739013672	-638.5604248046875	-1252.1328125	46.13665008544922	-594.0155639648438	-1159.35986328125	471.3465881347656	-278.7413330078125	-1138.392944335938	731.2623291015625	-245.4660034179688	-1223.624389648438	44.78451156616211	-270.7139282226562	-1165.876831054688	329.4877014160156	-264.8419494628906	-1005.147705078125	47.21160888671875	-303.0858154296875	-1066.066284179688	52.34867095947266	-342.5280151367188	-1092.282470703125	48.80304718017578	-236.9451141357422	-1285.304443359375	38.30699920654297	-321.1163940429688	
3	0.02	-1260.156616210938	962.960205078125	-426.9747009277344	-1228.065063476562	957.9436645507812	-564.0048828125	-1236.099365234375	1051.641357421875	-480.1265563964844	-978.1775512695312	1253.78369140625	-446.0278625488281	-1257.721313476562	1175.65234375	-487.14697265625	-1200.765502929688	1445.612915039062	-469.2084655761719	-1015.850463867188	1364.77001953125	-457.2451477050781	-1275.234741210938	1327.205322265625	-382.6052856445312	-1219.869018554688	1394.658081054688	-571.1334228515625	-1108.6728515625	1416.654296875	-636.2149658203125	-1103.573486328125	1299.6015625	-736.2560424804688	-1074.857421875	1087.788452148438	-771.7069091796875	-1157.608642578125	1075.950927734375	-710.7022094726562	-1016.866088867188	874.8242797851562	-751.370849609375	-1064.973754882812	872.3575439453125	-808.900634765625	-1062.471923828125	1000.56201171875	-789.8346557617188	-1023.641662597656	720.5529174804688	-790.5880126953125	-1063.680297851562	797.4331665039062	-822.5620727539062	-1007.331726074219	792.8761596679688	-775.5082397460938	-1153.488159179688	1418.451782226562	-300.7395629882812	-1180.380493164062	1360.733154296875	-226.0506591796875	-1186.795166015625	1080.35498046875	-157.8395843505859	-1231.594360351562	1064.310668945312	-206.0782318115234	-1099.8037109375	864.8430786132812	-158.3350982666016	-1182.485229492188	858.7158203125	-124.1986312866211	-1191.304809570312	1023.277648925781	-143.4103698730469	-1112.952880859375	710.5014038085938	-135.6628112792969	-1097.145751953125	768.6903686523438	-135.8177795410156	-1173.083251953125	771.8668823242188	-115.6852951049805	-1121.481323242188	1641.527465820312	-370.1504516601562	-981.0349731445312	1663.649047851562	-520.55029296875	-986.1083374023438	1661.912231445312	-389.8663330078125	-1131.029541015625	1648.429931640625	-547.552734375	-1072.704956054688	859.54833984375	-653.2730102539062	-1177.4189453125	863.3214111328125	-268.1722412109375	-1058.735107421875	902.3115844726562	-302.4811096191406	-992.46337890625	895.3369140625	-553.8409423828125	-1106.323120117188	444.7167663574219	-629.575439453125	-1066.22265625	594.7200317382812	-639.6764526367188	-1196.231201171875	41.66928100585938	-648.635009765625	-1121.169921875	299.5359802246094	-649.2776489257812	-980.4280395507812	43.13769149780273	-539.7047119140625	-1058.751342773438	50.49256134033203	-525.8958129882812	-1041.571899414062	44.95623779296875	-638.5634155273438	-1252.1640625	46.13178634643555	-594.0639038085938	-1159.222290039062	471.30224609375	-278.7659912109375	-1138.427001953125	731.2027587890625	-245.553466796875	-1223.589599609375	44.81666564941406	-270.7459411621094	-1165.720092773438	329.4288635253906	-264.9232788085938	-1005.123046875	47.21919631958008	-303.0461120605469	-1066.027465820312	52.28850173950195	-342.6098937988281	-1092.276000976562	48.84148025512695	-236.98974609375	-1285.304809570312	38.30465316772461	-321.1138916015625	
4	0.03	-1260.2783203125	962.8696899414062	-426.9176025390625	-1228.335327148438	957.9097290039062	-563.940185546875	-1236.215576171875	1051.654663085938	-480.0580749511719	-978.212646484375	1253.752319335938	-446.1725769042969	-1257.827880859375	1175.6630859375	-487.0359802246094	-1200.784057617188	1445.612060546875	-469.0606384277344	-1015.891967773438	1364.771362304688	-457.3666076660156	-1275.173583984375	1327.205688476562	-382.3797607421875	-1220.064819335938	1394.702270507812	-570.878662109375	-1108.997192382812	1416.720581054688	-636.219482421875	-1104.4443359375	1299.6953125	-736.300537109375	-1076.344482421875	1087.722290039062	-771.8893432617188	-1158.85107421875	1076.078369140625	-710.5017700195312	-1018.469604492188	874.8153076171875	-751.4310302734375	-1066.574829101562	872.1815185546875	-808.656982421875	-1064.039672851562	1000.480773925781	-789.9229125976562	-1025.136596679688	720.424072265625	-790.0750122070312	-1065.35009765625	797.2018432617188	-822.1256103515625	-1008.884216308594	792.7886352539062	-775.3296508789062	-1153.307006835938	1418.36083984375	-300.6210327148438	-1180.090209960938	1360.6015625	-225.9649047851562	-1186.80615234375	1080.236328125	-157.7929992675781	-1231.622436523438	1064.242431640625	-206.0582427978516	-1100.0498046875	864.6817626953125	-158.2942504882812	-1182.76171875	858.6073608398438	-124.2167892456055	-1191.359985351562	1023.180908203125	-143.41259765625	-1113.2734375	710.3543701171875	-135.4714813232422	-1097.424682617188	768.5264282226562	-135.7100524902344	-1173.420654296875	771.7948608398438	-115.6120300292969	-1121.435913085938	1641.592895507812	-370.1490173339844	-981.1144409179688	1663.604370117188	-520.6483764648438	-986.12109375	1661.985961914062	-390.031005859375	-1131.10546875	1648.389526367188	-547.5690307617188	-1072.979614257812	859.5363159179688	-653.3845825195312	-1177.368896484375	863.2494506835938	-268.1631469726562	-1058.737426757812	902.2758178710938	-302.6259765625	-992.5843505859375	895.41162109375	-553.962158203125	-1106.340087890625	444.7279052734375	-629.6180419921875	-1066.386840820312	594.7692260742188	-639.8646850585938	-1196.241088867188	41.65819931030273	-648.6598510742188	-1121.160034179688	299.51611328125	-649.3038330078125	-980.4622192382812	43.17436981201172	-539.7212524414062	-1058.768310546875	50.49343872070312	-525.900390625	-1041.580688476562	44.95930480957031	-638.5657348632812	-1252.197143554688	46.12129974365234	-594.1119384765625	-1159.029296875	471.2377624511719	-278.8121948242188	-1138.435668945312	731.1292114257812	-245.6693420410156	-1223.550170898438	44.86794662475586	-270.7799377441406	-1165.503295898438	329.3472290039062	-265.0284118652344	-1005.092407226562	47.22824096679688	-302.9942626953125	-1065.980224609375	52.21229553222656	-342.7068481445312	-1092.267211914062	48.88740921020508	-237.0485382080078	-1285.305419921875	38.30559921264648	-321.1179504394531	
